<?xml version="1.0" standalone="no"?><!DOCTYPE svg PUBLIC "-//W3C//DTD SVG 1.1//EN" "http://www.w3.org/Graphics/SVG/1.1/DTD/svg11.dtd"><svg t="1741082136760" class="icon" viewBox="0 0 1024 1024" version="1.1" xmlns="http://www.w3.org/2000/svg" p-id="6836" xmlns:xlink="http://www.w3.org/1999/xlink" width="200" height="200"><path d="M559.6 523.9h-71.4c-26.3 0-47.6 21.3-47.6 47.6v214.3c0 26.3 21.3 47.6 47.6 47.6s47.6-21.3 47.6-47.6V619.2h23.8v-95.3zM305.8 472.2c5.5 0 11-1.3 16-3.8L456.5 413c3.4-1.7 6.6-4 9.3-6.7l141.4-96.7-47.6-71.4-140.2 113.5-129.5 52.8c-17.6 8.8-24.8 30.3-15.9 47.9 6 12.1 18.3 19.8 31.8 19.8z" fill="#FFBA57" p-id="6837"></path><path d="M774 833.5h-95.3l-23.8-262H774v262z" fill="#2D4C5C" p-id="6838"></path><path d="M547.7 0c-46 0-83.3 37.3-83.3 83.3s37.3 83.3 83.3 83.3S631 129.3 631 83.3 593.8 0 547.7 0" fill="#FFBA57" p-id="6839"></path><path d="M456.5 413c3.4-1.7 6.6-4 9.3-6.7l141.4-96.7-47.6-71.4-140.2 113.5 37.1 61.3z" fill="#EC407A" p-id="6840"></path><path d="M35.7 714.4S131 785.8 512 785.8h476.3v166.7H250c-95.3 0-214.3-190.5-214.3-214.3v-23.8z" fill="#5EC08F" p-id="6841"></path><path d="M226.334 121.953l47.253-5.726 95.229 785.82-47.252 5.727z" fill="#455A64" p-id="6842"></path><path d="M273.9 976.4h166.7c-14.9-128-81.6-163-92-238.1H301c3.7 75.9-34.6 101.1-27.1 238.1z" fill="#607D8B" p-id="6843"></path><path d="M609 227.3l-195.8-39-134-88.6c-17.3-9.6-39-3.3-48.6 14s-3.3 39 14 48.6l138.9 91.3c3.2 1.8 6.7 3.1 10.3 3.8l189.5 76.1L609 227.3z" fill="#FFBA57" p-id="6844"></path><path d="M771 535.8l-88.5-268.5c-10.5-31.4-39.8-52.7-73-52.9H544l-130.8-26.2-29.7 65.2c3.2 1.8 6.7 3.1 10.3 3.8l128.6 51.6c0.7 2.5 1.2 4.8 2 7.4L624 584.7c4.5 13.4 12.7 25.3 23.5 34.4h78.6c43.9-5.2 54.9-52.4 44.7-83.3h0.2z" fill="#FF66A1" p-id="6845"></path><path d="M988.3 881.1c-38.1 3-74.8-15.3-95.3-47.6-20.5 32.3-57.1 50.6-95.3 47.6-38.1 3-74.8-15.3-95.3-47.6-20.5 32.3-57.1 50.6-95.3 47.6-38.1 3-74.8-15.3-95.3-47.6-20.5 32.3-57.1 50.6-95.3 47.6-38.1 3-74.8-15.3-95.3-47.6-20.5 32.3-57.1 50.6-95.3 47.6-38.1 3-74.8-15.3-95.3-47.6-20.5 32.3-57.1 50.6-95.3 47.6V1024h952.6V881.1z" fill="#7E8CCF" p-id="6846"></path><path d="M988.3 928.7c-38.1 3-74.8-15.3-95.3-47.6-20.5 32.3-57.1 50.6-95.3 47.6-38.1 3-74.8-15.3-95.3-47.6-20.5 32.3-57.1 50.6-95.3 47.6-38.1 3-74.8-15.3-95.3-47.6-20.5 32.3-57.1 50.6-95.3 47.6-38.1 3-74.8-15.3-95.3-47.6-20.5 32.3-57.1 50.6-95.3 47.6-38.1 3-74.8-15.3-95.3-47.6-20.5 32.3-57.1 50.6-95.3 47.6v95.3h952.6v-95.3z" fill="#C5CAE9" p-id="6847"></path><path d="M771 535.8l-11.3-34.3-223.9 22.4v95.3h190.5c43.9-5.3 55-52.4 44.7-83.4z" fill="#546E7A" p-id="6848"></path></svg>